<svg width="40" height="40" viewBox="0 0 40 40" fill="none" xmlns="http://www.w3.org/2000/svg">
<path d="M6.6665 6.66671V33.3334C6.6665 34.2174 7.01769 35.0653 7.64281 35.6904C8.26794 36.3155 9.11578 36.6667 9.99984 36.6667H29.9998C30.8839 36.6667 31.7317 36.3155 32.3569 35.6904C32.982 35.0653 33.3332 34.2174 33.3332 33.3334V13.9034C33.3331 13.4593 33.2443 13.0197 33.072 12.6104C32.8997 12.2012 32.6474 11.8304 32.3298 11.52L24.9298 4.28337C24.3071 3.67447 23.4708 3.33348 22.5998 3.33337H9.99984C9.11578 3.33337 8.26794 3.68456 7.64281 4.30968C7.01769 4.93481 6.6665 5.78265 6.6665 6.66671V6.66671Z" stroke="#3E5196" stroke-width="2" stroke-linecap="round" stroke-linejoin="round"/>
<path d="M15 21.6667H25" stroke="#3E5196" stroke-width="2" stroke-linecap="round" stroke-linejoin="round"/>
<path d="M15 28.3334H20" stroke="#3E5196" stroke-width="2" stroke-linecap="round" stroke-linejoin="round"/>
<path d="M23.333 3.33337V10C23.333 10.8841 23.6842 11.7319 24.3093 12.3571C24.9344 12.9822 25.7823 13.3334 26.6663 13.3334H33.333" stroke="#3E5196" stroke-width="2" stroke-linejoin="round"/>
</svg>
