<svg width="22" height="20" viewBox="0 0 22 20" fill="none" xmlns="http://www.w3.org/2000/svg">
<path d="M0 2.85714C0 2.09938 0.289731 1.37266 0.805456 0.836838C1.32118 0.30102 2.02065 0 2.75 0H19.25C19.9793 0 20.6788 0.30102 21.1945 0.836838C21.7103 1.37266 22 2.09938 22 2.85714V17.1429C22 17.9006 21.7103 18.6273 21.1945 19.1632C20.6788 19.699 19.9793 20 19.25 20H2.75C2.02065 20 1.32118 19.699 0.805456 19.1632C0.289731 18.6273 0 17.9006 0 17.1429V2.85714V2.85714ZM1.375 15.7143V17.1429C1.375 17.5217 1.51987 17.8851 1.77773 18.153C2.03559 18.4209 2.38533 18.5714 2.75 18.5714H19.25C19.6147 18.5714 19.9644 18.4209 20.2223 18.153C20.4801 17.8851 20.625 17.5217 20.625 17.1429V12.1429L15.4316 9.36143C15.3027 9.29432 15.1567 9.27104 15.0143 9.29488C14.8719 9.31872 14.7404 9.38848 14.6382 9.49429L9.537 14.7943L5.8795 12.2629C5.74744 12.1715 5.58905 12.1304 5.43117 12.1466C5.27328 12.1627 5.12563 12.2351 5.01325 12.3514L1.375 15.7143ZM8.25 6.42857C8.25 5.86025 8.0327 5.31521 7.64591 4.91334C7.25911 4.51148 6.73451 4.28571 6.1875 4.28571C5.64049 4.28571 5.11589 4.51148 4.72909 4.91334C4.3423 5.31521 4.125 5.86025 4.125 6.42857C4.125 6.99689 4.3423 7.54194 4.72909 7.9438C5.11589 8.34566 5.64049 8.57143 6.1875 8.57143C6.73451 8.57143 7.25911 8.34566 7.64591 7.9438C8.0327 7.54194 8.25 6.99689 8.25 6.42857Z" fill="white"/>
</svg>
