<svg width="80" height="80" viewBox="0 0 80 80" fill="none" xmlns="http://www.w3.org/2000/svg">
<path d="M46.6666 33.3333L45.6666 56.6667M34.3333 56.6667L33.3333 33.3333M19.9999 20L23.2088 68.133C23.2788 69.1836 24.1514 70 25.2044 70H54.7955C55.8484 70 56.721 69.1836 56.791 68.133L59.9999 20M19.9999 20H29.9999M19.9999 20H13.3333M59.9999 20H66.6666M59.9999 20H49.9999M49.9999 20V12C49.9999 10.8954 49.1045 10 47.9999 10H31.9999C30.8953 10 29.9999 10.8954 29.9999 12V20M49.9999 20H29.9999" stroke="black" stroke-width="3" stroke-linecap="round" stroke-linejoin="round"/>
</svg>
