<svg width="32" height="32" viewBox="0 0 32 32" fill="none" xmlns="http://www.w3.org/2000/svg">
<path d="M30 24V22H27.899C27.77 21.374 27.5215 20.7788 27.167 20.247L28.657 18.757L27.243 17.343L25.753 18.833C25.2212 18.4785 24.626 18.23 24 18.101V16H22V18.101C21.374 18.23 20.7788 18.4785 20.247 18.833L18.757 17.343L17.343 18.757L18.833 20.247C18.4785 20.7788 18.23 21.374 18.101 22H16V24H18.101C18.23 24.626 18.4785 25.2212 18.833 25.753L17.343 27.243L18.757 28.657L20.247 27.167C20.7788 27.5215 21.374 27.77 22 27.899V30H24V27.899C24.626 27.77 25.2212 27.5215 25.753 27.167L27.243 28.657L28.657 27.243L27.167 25.753C27.5215 25.2212 27.77 24.626 27.899 24H30ZM23 26C22.4067 26 21.8266 25.8241 21.3333 25.4944C20.8399 25.1648 20.4554 24.6962 20.2284 24.1481C20.0013 23.5999 19.9419 22.9967 20.0576 22.4147C20.1734 21.8328 20.4591 21.2982 20.8787 20.8787C21.2982 20.4591 21.8328 20.1734 22.4147 20.0576C22.9967 19.9419 23.5999 20.0013 24.1481 20.2284C24.6962 20.4554 25.1648 20.8399 25.4944 21.3333C25.8241 21.8266 26 22.4067 26 23C25.9992 23.7954 25.6829 24.558 25.1204 25.1204C24.558 25.6829 23.7954 25.9992 23 26Z" fill="white"/>
<path d="M29.8571 4H4.14286C3.57471 4.00057 3.03 4.22903 2.62825 4.63524C2.22651 5.04144 2.00057 5.59221 2 6.16667V27.8333C2.00057 28.4078 2.22651 28.9586 2.62825 29.3648C3.03 29.771 3.57471 29.9994 4.14286 30H14.8571V27.8333H4.14286V12.6667H29.8571V15.9167H32V6.16667C31.9994 5.59221 31.7735 5.04144 31.3717 4.63524C30.97 4.22903 30.4253 4.00057 29.8571 4ZM29.8571 10.5H4.14286V6.16667H29.8571V10.5Z" fill="white"/>
<path d="M20 9C20.5523 9 21 8.55228 21 8C21 7.44772 20.5523 7 20 7C19.4477 7 19 7.44772 19 8C19 8.55228 19.4477 9 20 9Z" fill="white"/>
<path d="M23 9C23.5523 9 24 8.55228 24 8C24 7.44772 23.5523 7 23 7C22.4477 7 22 7.44772 22 8C22 8.55228 22.4477 9 23 9Z" fill="white"/>
<path d="M26 9C26.5523 9 27 8.55228 27 8C27 7.44772 26.5523 7 26 7C25.4477 7 25 7.44772 25 8C25 8.55228 25.4477 9 26 9Z" fill="white"/>
</svg>
