<svg width="18" height="10" viewBox="0 0 18 10" fill="none" xmlns="http://www.w3.org/2000/svg">
<path d="M9.53182 3.33333C9.19478 2.35874 8.5691 1.51469 7.7411 0.917636C6.9131 0.320586 5.92359 -3.81612e-05 4.90909 3.40672e-09C2.20091 3.40672e-09 0 2.24167 0 5C0 7.75833 2.20091 10 4.90909 10C5.92359 10 6.9131 9.67941 7.7411 9.08236C8.5691 8.48531 9.19478 7.64126 9.53182 6.66667H13.0909V10H16.3636V6.66667H18V3.33333H9.53182ZM4.90909 6.66667C4.00909 6.66667 3.27273 5.91667 3.27273 5C3.27273 4.08333 4.00909 3.33333 4.90909 3.33333C5.80909 3.33333 6.54545 4.08333 6.54545 5C6.54545 5.91667 5.80909 6.66667 4.90909 6.66667Z" fill="white"/>
</svg>
