<svg width="30" height="34" viewBox="0 0 30 34" fill="none" xmlns="http://www.w3.org/2000/svg">
<path fill-rule="evenodd" clip-rule="evenodd" d="M0 0H25.8334V4.72184H24.1667V1.88874H1.66667V23.6092H19.4892V25.498H0V0ZM25.0001 12.2768C25.6631 12.2768 26.299 11.9783 26.7678 11.447C27.2367 10.9157 27.5001 10.1951 27.5001 9.44369C27.5001 8.6923 27.2367 7.97169 26.7678 7.44038C26.299 6.90907 25.6631 6.61058 25.0001 6.61058C24.337 6.61058 23.7011 6.90907 23.2323 7.44038C22.7635 7.97169 22.5001 8.6923 22.5001 9.44369C22.5001 10.1951 22.7635 10.9157 23.2323 11.447C23.7011 11.9783 24.337 12.2768 25.0001 12.2768ZM26.6926 14.175C27.7751 14.175 28.6317 14.7265 29.1926 15.5783C29.7167 16.3763 29.9384 17.3632 29.9884 18.2745C30.0392 19.199 29.9217 20.1679 29.6576 21.032C29.4076 21.8536 28.9851 22.7036 28.3334 23.2862V32.5807C28.334 32.9366 28.2164 33.2797 28.0039 33.5418C27.7914 33.8039 27.4996 33.9658 27.1867 33.9952C26.8737 34.0246 26.5624 33.9194 26.3147 33.7005C26.0671 33.4816 25.9012 33.1651 25.8501 32.814L24.7751 25.498H24.5267L23.3117 32.8414C23.254 33.1879 23.0843 33.4977 22.8358 33.71C22.5873 33.9223 22.2778 34.0219 21.9679 33.9893C21.658 33.9567 21.37 33.7942 21.1601 33.5337C20.9503 33.2732 20.8338 32.9334 20.8334 32.5807V19.1074C20.6667 19.3951 20.5023 19.6844 20.3401 19.9753L20.2751 20.0914L20.2584 20.1217L20.2542 20.1302C20.1419 20.3345 19.9855 20.5031 19.7997 20.6199C19.614 20.7367 19.405 20.798 19.1926 20.7978H15.0259C14.6944 20.7978 14.3764 20.6486 14.142 20.3829C13.9076 20.1173 13.7759 19.757 13.7759 19.3813C13.7759 19.0056 13.9076 18.6453 14.142 18.3796C14.3764 18.114 14.6944 17.9647 15.0259 17.9647H18.5067C18.7092 17.6096 18.9759 17.1488 19.2559 16.686C19.5476 16.2035 19.8692 15.6926 20.1559 15.2922C20.2951 15.0967 20.4509 14.8927 20.6076 14.7255C20.6842 14.6434 20.7909 14.5367 20.9209 14.4422C21.1503 14.2716 21.4181 14.1791 21.6926 14.1759H26.6926V14.175Z" fill="white"/>
</svg>
