<svg width="22" height="22" viewBox="0 0 22 22" fill="none" xmlns="http://www.w3.org/2000/svg">
<path d="M7.33333 22H2.44444C1.1 22 0 20.9 0 19.5556V2.44444C0 1.1 1.1 0 2.44444 0H7.33333C8.67778 0 9.77778 1.1 9.77778 2.44444V19.5556C9.77778 20.9 8.67778 22 7.33333 22ZM14.6667 22H19.5556C20.9 22 22 20.9 22 19.5556V13.4444C22 12.1 20.9 11 19.5556 11H14.6667C13.3222 11 12.2222 12.1 12.2222 13.4444V19.5556C12.2222 20.9 13.3222 22 14.6667 22ZM22 6.11111V2.44444C22 1.1 20.9 0 19.5556 0H14.6667C13.3222 0 12.2222 1.1 12.2222 2.44444V6.11111C12.2222 7.45556 13.3222 8.55556 14.6667 8.55556H19.5556C20.9 8.55556 22 7.45556 22 6.11111Z" fill="white" fill-opacity="0.95"/>
</svg>
