<svg width="20" height="20" viewBox="0 0 20 20" fill="none" xmlns="http://www.w3.org/2000/svg">
<path d="M2.21046 0H17.7895C19.2593 0 20 0.983333 20 2.98333V17.0167C20 19 19.2593 20 17.7895 20H2.21046C0.740741 20 0 19 0 17.0167V2.98333C0 0.983333 0.740741 0 2.21046 0ZM9.99412 14.3333L17.9189 5.11667C18.2011 4.78333 18.4245 4.01667 18.0717 3.33333C17.7307 2.65 17.1076 2.63333 16.6961 3.05L9.99412 9.48333L3.30394 3.05C2.89242 2.63333 2.26925 2.65 1.92828 3.33333C1.57554 4.01667 1.79894 4.78333 2.08113 5.11667L9.99412 14.3333Z" fill="#777777"/>
</svg>
