<svg width="50" height="50" viewBox="0 0 50 50" fill="none" xmlns="http://www.w3.org/2000/svg">
<g clip-path="url(#clip0_9:244)">
<path fill-rule="evenodd" clip-rule="evenodd" d="M47.9167 0H2.08333C1.5308 0 1.0009 0.219493 0.610194 0.610194C0.219493 1.0009 0 1.5308 0 2.08333L0 47.9167C0 48.4692 0.219493 48.9991 0.610194 49.3898C1.0009 49.7805 1.5308 50 2.08333 50H26.5625V31.25H20.3125V23.4375H26.5625V17.1875C26.5625 10.7292 30.6521 7.55208 36.4125 7.55208C39.1708 7.55208 41.5437 7.75833 42.2333 7.84792V14.5979L38.2396 14.6C35.1062 14.6 34.375 16.0896 34.375 18.2729V23.4375H42.1875L40.625 31.25H34.375L34.5 50H47.9167C48.4692 50 48.9991 49.7805 49.3898 49.3898C49.7805 48.9991 50 48.4692 50 47.9167V2.08333C50 1.5308 49.7805 1.0009 49.3898 0.610194C48.9991 0.219493 48.4692 0 47.9167 0" fill="white"/>
</g>
<defs>
<clipPath id="clip0_9:244">
<rect width="50" height="50" fill="white"/>
</clipPath>
</defs>
</svg>
