<svg width="19" height="24" viewBox="0 0 19 24" fill="none" xmlns="http://www.w3.org/2000/svg">
<path d="M9.5 0C6.22606 0 3.5625 2.6916 3.5625 6V9.6H2.375C1.74511 9.6 1.14102 9.85286 0.695621 10.3029C0.250222 10.753 0 11.3635 0 12V21.6C0 22.2365 0.250222 22.847 0.695621 23.2971C1.14102 23.7471 1.74511 24 2.375 24H16.625C17.2549 24 17.859 23.7471 18.3044 23.2971C18.7498 22.847 19 22.2365 19 21.6V12C19 11.3635 18.7498 10.753 18.3044 10.3029C17.859 9.85286 17.2549 9.6 16.625 9.6H15.4375V6C15.4375 2.6916 12.7739 0 9.5 0ZM5.9375 6C5.9375 4.0152 7.53587 2.4 9.5 2.4C11.4641 2.4 13.0625 4.0152 13.0625 6V9.6H5.9375V6ZM10.6875 18.8676V21.6H8.3125V18.8676C7.89733 18.6273 7.56397 18.2656 7.35636 17.83C7.14875 17.3945 7.07665 16.9055 7.14956 16.4277C7.22247 15.9499 7.43698 15.5057 7.76478 15.1535C8.09259 14.8014 8.51831 14.5579 8.98581 14.4552C9.33306 14.3776 9.69311 14.3798 10.0394 14.4615C10.3857 14.5433 10.7095 14.7026 10.9867 14.9276C11.264 15.1526 11.4878 15.4377 11.6415 15.7618C11.7952 16.0858 11.875 16.4406 11.875 16.8C11.8743 17.2197 11.7642 17.6318 11.5557 17.9948C11.3472 18.3578 11.0478 18.6588 10.6875 18.8676Z" fill="#5A5A5A"/>
</svg>
