<svg width="25" height="25" viewBox="0 0 25 25" fill="none" xmlns="http://www.w3.org/2000/svg">
<path d="M12.5 3.46216L25 9.74235L12.5 15.9823L3.17308 11.3124C2.59615 11.9163 2.17949 12.8824 2.11538 13.9694H2.33974C2.59615 13.9694 2.78846 14.2109 2.78846 14.533V16.0225C2.78846 16.3446 2.59615 16.5862 2.33974 16.5862H2.17949L2.78846 24.3961C2.82051 24.7182 2.62821 25 2.37179 25H1.25C0.99359 25 0.801282 24.7182 0.801282 24.3961L1.44231 16.5862H1.28205C1.02564 16.5862 0.801282 16.3446 0.801282 16.0225V14.533C0.801282 14.2109 1.02564 13.9694 1.28205 13.9694H1.63462C1.69872 12.8019 2.11538 11.7955 2.69231 11.0709L0 9.74235L12.5 3.46216ZM12.1474 17.1095L12.5 17.2705L12.8526 17.1095L19.7115 13.6473L20.2244 20.7729C20.2564 21.256 20 21.4573 19.6474 21.256L16.9551 19.525C16.6026 19.2834 16.0256 19.3237 15.7051 19.5652L13.109 21.4171C12.7885 21.6586 12.2115 21.6586 11.891 21.4171L9.29487 19.5652C8.97436 19.3237 8.39744 19.2834 8.07692 19.525L5.35256 21.256C5 21.4976 4.74359 21.256 4.77564 20.7729L5.28846 13.6473L12.1474 17.1095Z" fill="#5A5A5A"/>
</svg>
