<svg width="862" height="651" viewBox="0 0 862 651" fill="none" xmlns="http://www.w3.org/2000/svg">
<path d="M270.035 287.858C235.513 423.824 415.301 676.56 262.205 637.689C109.109 598.819 12.985 457.086 47.5062 321.119C82.0274 185.153 234.121 106.441 387.217 145.312C540.313 184.182 304.556 151.892 270.035 287.858Z" fill="#363671" fill-opacity="0.5"/>
<path d="M536.871 365.805C591.73 236.696 452.603 -40.5078 597.977 21.263C743.351 83.0337 816.728 237.772 761.869 366.881C707.009 495.989 544.688 550.577 399.314 488.806C253.939 427.036 482.011 494.914 536.871 365.805Z" fill="#363671" fill-opacity="0.5"/>
<g clip-path="url(#clip0_6:208)">
<path opacity="0.3" d="M525.488 151.301C506.53 155.1 487.194 147.094 470.385 137.053C447.004 122.94 426.151 104.485 403.402 89.1516C380.653 73.8178 355.124 61.3337 328.331 61.3337C301.537 61.3337 273.354 76.1247 262.738 102.586C251.49 130.675 261.979 163.242 257.05 193.367C249.215 242.218 203.085 276.142 195.376 324.993C190.952 352.946 200.178 381.85 214.965 405.325C246.308 455.397 305.076 485.115 360.558 476.023C395.945 470.188 428.173 450.105 455.093 424.73C481.886 399.355 504.003 368.687 525.867 338.291" fill="#ABD5E6"/>
<path opacity="0.3" d="M541.665 503.298C535.093 494.885 528.9 485.929 523.339 476.566C518.031 467.61 513.102 458.111 511.207 447.798C508.553 433.822 511.459 419.438 515.125 405.597C519.295 389.856 524.477 374.251 533.071 360.681C541.665 347.247 554.051 335.984 568.837 331.913C580.844 328.656 593.608 330.285 605.741 327.571C629.248 322.414 647.448 301.924 659.201 279.399C665.394 267.593 671.208 254.023 682.582 248.324C695.979 241.539 713.04 249.002 721.255 262.301C729.47 275.599 730.102 292.833 726.816 308.302C723.404 323.771 716.453 338.02 710.007 352.403C703.688 366.787 697.748 381.85 696.99 397.726C695.726 423.916 708.238 449.698 704.825 475.752C702.93 490.407 695.979 503.705 687.132 515.104C679.928 524.603 671.208 533.016 660.844 538.308C645.425 546.178 627.226 546.586 610.796 541.836C594.24 537.087 579.327 527.452 565.93 516.054" fill="#FFCE68"/>
<path opacity="0.1" d="M442.454 591.23C596.711 591.23 721.761 583.636 721.761 574.268C721.761 564.9 596.711 557.306 442.454 557.306C288.198 557.306 163.148 564.9 163.148 574.268C163.148 583.636 288.198 591.23 442.454 591.23Z" fill="#1D262D"/>
<path d="M669.312 138.41H367.004V571.418H669.312V138.41Z" fill="#215B74"/>
<path opacity="0.2" d="M650.86 167.584H385.582V555.406H650.86V167.584Z" fill="#1D262D"/>
<path d="M650.86 160.935H385.582V548.757H650.86V160.935Z" fill="white"/>
<path d="M365.74 165.413V137.053H392.154L365.74 165.413Z" fill="#DC894E"/>
<path d="M670.576 165.413V137.053H644.162L670.576 165.413Z" fill="#DC894E"/>
<path d="M365.74 545.5V573.861H392.154L365.74 545.5Z" fill="#DC894E"/>
<path d="M670.576 545.5V573.861H644.162L670.576 545.5Z" fill="#DC894E"/>
<path d="M518.158 149.13C507.668 149.13 499.327 154.286 499.327 143.159V141.395C499.327 130.132 507.794 121.176 518.158 121.176C528.648 121.176 536.989 130.268 536.989 141.395V143.159C537.115 154.286 528.648 149.13 518.158 149.13Z" fill="#FFCE68"/>
<path opacity="0.2" d="M567.447 165.413H468.868V174.912H567.447V165.413Z" fill="#1D262D"/>
<path d="M570.228 133.389H466.214V170.977H570.228V133.389Z" fill="#FFCE68"/>
<path opacity="0.2" d="M583.245 154.015H455.725V175.59H583.245V154.015Z" fill="#CC2A3A"/>
<path d="M448.394 232.855H412.122V271.8H448.394V232.855Z" fill="#ABD5E6"/>
<path d="M452.186 275.87H408.205V228.648H452.186V275.87ZM409.595 274.513H450.922V230.141H409.595V274.513Z" fill="#ABD5E6"/>
<path d="M448.394 292.561H412.122V331.506H448.394V292.561Z" fill="#ABD5E6"/>
<path d="M452.186 335.577H408.205V288.355H452.186V335.577ZM409.595 334.22H450.922V289.847H409.595V334.22Z" fill="#ABD5E6"/>
<path d="M448.394 352.268H412.122V391.213H448.394V352.268Z" fill="#ABD5E6"/>
<path d="M452.186 395.284H408.205V348.061H452.186V395.284ZM409.595 393.927H450.922V349.554H409.595V393.927Z" fill="#ABD5E6"/>
<path d="M427.036 265.965L406.056 243.71C404.666 242.218 404.539 239.639 406.056 238.147C407.446 236.654 409.848 236.518 411.238 238.147L426.656 254.566L451.175 225.527C452.565 223.899 454.84 223.763 456.356 225.256C457.873 226.748 457.999 229.191 456.609 230.819L427.036 265.965Z" fill="#23809B"/>
<path d="M427.036 326.078L406.056 303.824C404.666 302.331 404.539 299.753 406.056 298.26C407.446 296.768 409.848 296.632 411.238 298.26L426.656 314.68L451.175 285.641C452.565 284.012 454.84 283.877 456.356 285.369C457.873 286.862 457.999 289.304 456.609 290.933L427.036 326.078Z" fill="#23809B"/>
<path d="M427.036 384.835L406.056 362.581C404.666 361.088 404.539 358.51 406.056 357.017C407.446 355.524 409.848 355.389 411.238 357.017L426.656 373.436L451.175 344.397C452.565 342.769 454.84 342.633 456.356 344.126C457.873 345.619 457.999 348.061 456.609 349.689L427.036 384.835Z" fill="#23809B"/>
<path d="M448.394 411.974H412.122V450.919H448.394V411.974Z" fill="#ABD5E6"/>
<path d="M452.186 454.99H408.205V407.768H452.186V454.99ZM409.595 453.633H450.922V409.26H409.595V453.633Z" fill="#ABD5E6"/>
<path d="M448.394 471.681H412.122V510.626H448.394V471.681Z" fill="#ABD5E6"/>
<path d="M452.186 514.697H408.205V467.474H452.186V514.697ZM409.595 513.34H450.922V468.967H409.595V513.34Z" fill="#ABD5E6"/>
<path d="M625.962 238.689H465.33V243.439H625.962V238.689Z" fill="#23809B"/>
<path d="M625.962 249.952H465.33V254.702H625.962V249.952Z" fill="#23809B"/>
<path d="M514.998 261.215H465.33V265.965H514.998V261.215Z" fill="#23809B"/>
<path d="M625.962 297.582H465.33V302.331H625.962V297.582Z" fill="#23809B"/>
<path d="M625.962 308.98H465.33V313.73H625.962V308.98Z" fill="#23809B"/>
<path d="M570.228 320.243H465.33V324.993H570.228V320.243Z" fill="#23809B"/>
<path d="M625.962 356.61H465.33V361.359H625.962V356.61Z" fill="#23809B"/>
<path d="M602.708 367.873H465.33V372.622H602.708V367.873Z" fill="#23809B"/>
<path d="M514.998 379.136H465.33V383.885H514.998V379.136Z" fill="#23809B"/>
<path d="M625.962 415.502H465.33V420.252H625.962V415.502Z" fill="#23809B"/>
<path d="M546.215 426.765H465.33V431.515H546.215V426.765Z" fill="#23809B"/>
<path d="M625.962 474.531H465.33V479.28H625.962V474.531Z" fill="#23809B"/>
<path d="M625.962 485.793H465.33V490.543H625.962V485.793Z" fill="#23809B"/>
<path d="M582.487 497.056H465.33V501.806H582.487V497.056Z" fill="#23809B"/>
<path d="M594.746 190.653H442.075V202.323H594.746V190.653Z" fill="#23809B"/>
<path d="M518.158 134.746C520.531 134.746 522.455 132.68 522.455 130.132C522.455 127.584 520.531 125.518 518.158 125.518C515.785 125.518 513.861 127.584 513.861 130.132C513.861 132.68 515.785 134.746 518.158 134.746Z" fill="white"/>
<path d="M212.185 551.064L209.657 564.226C209.657 564.226 193.985 567.89 193.101 571.689C192.216 575.489 225.96 572.911 225.96 572.911L229.499 551.064" fill="#47648F"/>
<path opacity="0.1" d="M207.003 545.229C205.992 546.043 205.486 547.535 205.739 548.892C205.865 550.249 206.497 551.471 207.382 552.556C209.404 555.134 212.311 556.763 215.344 557.713C218.125 558.663 221.158 559.205 224.191 559.341C227.856 559.477 231.774 558.663 234.681 556.22C237.588 553.777 238.978 549.028 237.208 545.636C236.197 543.736 234.428 542.515 232.659 541.429C229.373 539.665 225.834 538.444 222.295 537.901" fill="#1D262D"/>
<path d="M297.114 551.064L296.735 564.226C296.735 564.226 312.406 567.89 313.291 571.689C314.176 575.489 280.431 572.911 280.431 572.911L279.673 551.064" fill="#47648F"/>
<path opacity="0.1" d="M280.431 544.143C278.03 545.636 276.008 547.807 274.618 550.249C273.859 551.606 273.228 553.099 273.228 554.727C273.228 556.356 273.733 557.984 274.871 558.934C275.629 559.477 276.513 559.748 277.398 559.884C279.168 560.155 283.212 560.698 284.981 560.562C290.036 560.02 293.196 558.663 297.24 555.27C301.916 551.335 303.686 543.872 301.411 537.901" fill="#1D262D"/>
<path d="M366.498 246.017C366.498 246.017 354.871 242.082 355.124 238.554C355.376 234.89 363.212 237.875 363.212 237.875C363.212 237.875 358.915 220.642 360.685 219.285C362.58 217.928 365.361 228.648 365.361 228.648C365.361 228.648 365.866 218.199 368.394 218.335C370.922 218.471 370.416 226.884 370.416 226.884C370.416 226.884 373.196 220.235 375.724 221.32C378.125 222.406 374.081 229.733 374.081 229.733C374.081 229.733 380.4 225.934 381.285 227.698C382.296 229.462 377.367 235.568 377.367 235.568C377.367 235.568 383.433 241.675 376.103 253.48C374.081 252.531 368.394 249.681 365.361 250.359L366.498 246.017Z" fill="#FFD1BB"/>
<path d="M291.174 298.26C291.174 298.26 343.623 303.281 363.718 248.595C377.999 246.289 377.999 257.144 377.999 257.144C377.999 257.144 358.157 337.205 296.482 326.757" fill="#FFD555"/>
<path d="M233.543 397.048C233.543 397.048 217.493 495.021 209.657 553.506C226.339 555.542 229.878 554.32 229.878 554.32L260.968 434.636C260.968 434.636 269.436 434.636 274.618 434.636C275.629 435.857 278.662 554.32 278.662 554.32C278.662 554.32 292.69 556.491 298.251 553.506C298.251 553.506 304.571 462.318 306.213 412.788L233.543 397.048Z" fill="#798EC9"/>
<path opacity="0.1" d="M201.316 398.133C224.065 416.859 253.385 426.222 281.948 423.78C310.51 421.337 338.062 407.225 357.778 384.835C308.868 381.035 258.314 377.914 211.932 395.284" fill="#1D262D"/>
<path d="M278.156 296.089C278.156 296.089 260.463 297.175 255.66 302.196C250.731 307.216 240.242 341.819 233.67 396.912C259.957 426.63 306.34 412.653 306.34 412.653C306.34 412.653 308.741 312.237 306.214 307.216C301.411 297.582 278.156 296.089 278.156 296.089Z" fill="#FFD555"/>
<path opacity="0.2" d="M255.028 398.133C282.327 400.44 305.202 385.649 315.06 377.372C316.956 375.743 319.736 375.608 321.632 373.844C323.528 372.079 324.792 369.501 324.286 366.923C323.528 362.852 319.105 361.224 315.313 360.41C297.24 356.746 278.662 358.103 260.842 362.309C252.88 364.209 216.734 370.315 228.993 385.921C234.175 392.705 247.066 397.455 255.028 398.133Z" fill="#D15579"/>
<path d="M163.401 402.747L160.115 390.399C158.725 385.106 161.505 379.543 166.56 378.05L332.122 327.028L340.59 358.645L174.902 409.667C169.973 411.16 164.791 408.039 163.401 402.747Z" fill="#DD7E62"/>
<path opacity="0.43" d="M327.19 379.648L309.426 313.12L303.959 314.803L321.722 381.331L327.19 379.648Z" fill="white"/>
<path opacity="0.43" d="M193.196 420.909L175.432 354.382L169.965 356.065L187.729 422.592L193.196 420.909Z" fill="white"/>
<path d="M188.669 424.23L170.905 357.703L126.561 371.353L144.325 437.88L188.669 424.23Z" fill="#215B74"/>
<path opacity="0.5" d="M151.354 406.879L159.887 438.838L366.545 375.224L358.011 343.265L151.354 406.879Z" fill="#D15579"/>
<path opacity="0.2" d="M138.959 360.472L147.493 392.431L354.151 328.817L345.617 296.858L138.959 360.472Z" fill="#D15579"/>
<path d="M331.996 327.028L360.432 335.306L340.463 358.645L331.996 327.028Z" fill="#FFEAAA"/>
<path d="M368.52 353.218C378.711 353.218 386.972 344.348 386.972 333.406C386.972 322.464 378.711 313.594 368.52 313.594C358.33 313.594 350.068 322.464 350.068 333.406C350.068 344.348 358.33 353.218 368.52 353.218Z" fill="#23809B"/>
<path d="M251.995 376.15C251.995 376.15 260.716 375.608 264.633 377.507C268.551 379.271 270.447 380.357 270.447 380.357L278.283 377.914C278.283 377.914 276.387 388.906 267.035 389.72C257.682 390.534 249.72 387.685 249.72 387.685L251.995 376.15Z" fill="#FFD1BB"/>
<path d="M268.046 297.582C268.046 297.582 212.943 301.246 208.267 353.489C205.107 389.449 251.742 391.213 251.742 391.213L253.891 375.336C253.891 375.336 234.302 366.652 234.302 353.76C234.302 340.869 255.534 331.37 255.534 331.37L268.046 297.582Z" fill="#FFD555"/>
<path d="M278.788 295.275C269.057 295.275 259.578 298.939 259.578 298.939L282.327 319.7L300.653 298.125C300.653 298.125 294.46 295.275 278.788 295.275Z" fill="#FFAA4D"/>
<path d="M266.276 280.62C266.276 280.62 258.062 281.298 255.155 278.449C249.341 272.749 245.297 240.454 245.044 233.669C244.791 226.884 252.374 217.249 261.095 217.249C262.359 207.208 267.54 210.329 267.54 210.329C267.54 210.329 265.139 206.122 268.172 203.137C269.942 206.665 270.953 209.515 270.953 209.515C270.953 209.515 275.755 205.172 286.877 207.344C297.872 209.515 304.697 203.815 307.351 209.515C310.005 215.214 314.176 232.719 307.098 236.111C299.894 239.368 262.99 260.265 266.276 280.62Z" fill="#27305C"/>
<path d="M265.013 272.749L268.425 301.246L282.074 313.73L293.449 301.246V282.927" fill="#FFD1BB"/>
<path opacity="0.2" d="M277.145 258.773C273.859 258.908 270.953 261.351 269.436 264.472C267.919 267.593 267.667 271.257 267.793 274.785C267.919 277.634 268.299 280.484 269.31 283.198C270.574 286.455 272.975 289.169 275.629 291.204C279.168 293.918 283.591 295.682 288.014 295.139C292.438 294.597 296.608 291.747 298.251 287.405C300.021 282.52 298.378 276.82 295.724 272.478C292.691 267.457 288.014 263.251 282.454 262.029C280.052 261.487 277.398 261.622 275.629 263.522" fill="#D15579"/>
<path d="M270.068 222.949C260.968 227.155 252.248 263.522 263.622 279.127C274.997 294.732 302.296 291.747 311.901 279.941C319.484 270.171 308.236 205.444 270.068 222.949Z" fill="#FFD1BB"/>
<path d="M297.114 244.796C295.471 245.61 298.378 262.572 298.378 262.572C300.526 262.844 307.351 259.044 307.351 257.416C307.351 257.551 300.147 243.303 297.114 244.796Z" fill="#FFA690"/>
<path d="M252.248 260.13C252.374 257.28 254.649 255.109 257.05 253.888C259.452 252.666 263.243 259.315 265.897 259.18C270.194 258.908 273.733 256.601 274.239 254.837C274.618 253.48 274.239 237.74 276.134 235.568C279.294 231.769 284.602 231.498 289.405 231.633C294.081 231.633 299.515 231.362 302.548 227.427C303.18 226.477 303.812 225.391 303.939 224.306C304.191 222.542 303.433 220.642 302.422 219.149C298.883 213.993 292.438 212.364 286.624 212.636C277.019 213.178 267.919 218.335 261.727 226.205C255.534 234.076 252.248 244.389 252.122 254.566" fill="#27305C"/>
<path d="M267.54 261.894C267.54 261.894 268.678 242.896 259.578 245.61C250.479 248.324 252.627 267.457 262.99 267.05" fill="#FFD1BB"/>
<path d="M282.201 244.253C281.822 245.203 282.959 247.781 284.223 247.51C285.487 247.238 291.679 246.424 292.311 244.796C292.943 243.167 291.806 241.268 291.048 240.996C290.163 240.725 282.706 243.032 282.201 244.253Z" fill="#27305C"/>
<path d="M301.664 239.097C301.158 240.046 302.043 242.625 303.18 242.625C304.318 242.625 309.879 242.489 310.637 240.996C311.395 239.504 310.51 237.468 309.879 237.061C309.12 236.654 302.296 238.011 301.664 239.097Z" fill="#27305C"/>
<path d="M290.289 255.516C290.795 255.787 291.3 255.652 291.806 255.516C292.564 255.244 293.322 254.837 293.449 253.752C293.575 252.802 293.322 251.716 292.943 250.766C292.69 250.224 292.438 249.817 292.185 249.41C291.3 248.324 290.036 248.324 289.405 249.41C288.646 250.766 288.646 254.702 290.289 255.516Z" fill="#0A303E"/>
<path d="M305.708 251.445C306.213 251.716 306.719 251.581 307.225 251.445C307.983 251.174 308.741 250.767 308.867 249.681C308.994 248.731 308.741 247.645 308.362 246.696C308.109 246.153 307.856 245.746 307.604 245.339C306.719 244.253 305.455 244.253 304.823 245.339C303.939 246.831 304.065 250.766 305.708 251.445Z" fill="#0A303E"/>
<path d="M265.013 253.888C264.886 251.988 263.749 250.088 262.232 249.274C261.095 248.595 259.578 248.595 258.567 249.41C257.556 250.224 257.05 251.988 257.935 252.938C258.314 253.48 258.946 253.888 259.199 254.43C259.325 255.109 259.073 255.787 258.82 256.33C258.314 257.551 258.062 259.315 259.073 260.265C259.578 260.808 260.463 261.079 261.221 260.944C263.37 260.265 265.139 256.33 265.013 253.888Z" fill="#FFA690"/>
<path d="M260.084 377.507C260.084 377.507 267.414 373.979 269.183 373.708C271.079 373.436 271.964 375.2 271.458 376.286C270.953 377.372 265.771 380.628 265.771 380.628" fill="#FFD1BB"/>
<path d="M700.023 209.65C704.35 209.65 707.859 205.884 707.859 201.237C707.859 196.591 704.35 192.824 700.023 192.824C695.695 192.824 692.187 196.591 692.187 201.237C692.187 205.884 695.695 209.65 700.023 209.65Z" fill="#E15C56"/>
<path d="M685.489 121.176C689.677 121.176 693.072 117.531 693.072 113.034C693.072 108.538 689.677 104.892 685.489 104.892C681.301 104.892 677.906 108.538 677.906 113.034C677.906 117.531 681.301 121.176 685.489 121.176Z" fill="#215B74"/>
<path d="M620.149 83.1809C623.36 83.1809 625.962 80.3863 625.962 76.9389C625.962 73.4915 623.36 70.6968 620.149 70.6968C616.938 70.6968 614.335 73.4915 614.335 76.9389C614.335 80.3863 616.938 83.1809 620.149 83.1809Z" fill="#FFCE68"/>
<path d="M713.799 392.705C717.009 392.705 719.612 389.911 719.612 386.463C719.612 383.016 717.009 380.221 713.799 380.221C710.588 380.221 707.985 383.016 707.985 386.463C707.985 389.911 710.588 392.705 713.799 392.705Z" fill="#FFCE68"/>
<path d="M562.645 67.4401C565.716 67.4401 568.205 64.7669 568.205 61.4694C568.205 58.1719 565.716 55.4988 562.645 55.4988C559.573 55.4988 557.084 58.1719 557.084 61.4694C557.084 64.7669 559.573 67.4401 562.645 67.4401Z" fill="#FFCE68"/>
<path d="M175.281 476.43C178.352 476.43 180.842 473.757 180.842 470.46C180.842 467.162 178.352 464.489 175.281 464.489C172.21 464.489 169.72 467.162 169.72 470.46C169.72 473.757 172.21 476.43 175.281 476.43Z" fill="#FFCE68"/>
<path d="M605.362 118.733C606.828 118.733 608.016 117.458 608.016 115.884C608.016 114.31 606.828 113.034 605.362 113.034C603.896 113.034 602.708 114.31 602.708 115.884C602.708 117.458 603.896 118.733 605.362 118.733Z" fill="#23809B"/>
<path d="M680.813 61.4694C682.348 61.4694 683.593 60.1329 683.593 58.4841C683.593 56.8354 682.348 55.4988 680.813 55.4988C679.277 55.4988 678.032 56.8354 678.032 58.4841C678.032 60.1329 679.277 61.4694 680.813 61.4694Z" fill="#23809B"/>
<path d="M731.492 244.796C733.028 244.796 734.273 243.459 734.273 241.811C734.273 240.162 733.028 238.825 731.492 238.825C729.957 238.825 728.712 240.162 728.712 241.811C728.712 243.459 729.957 244.796 731.492 244.796Z" fill="#23809B"/>
<path d="M463.308 89.0159C466.379 89.0159 468.868 86.3427 468.868 83.0452C468.868 79.7477 466.379 77.0746 463.308 77.0746C460.236 77.0746 457.747 79.7477 457.747 83.0452C457.747 86.3427 460.236 89.0159 463.308 89.0159Z" fill="#DC894E"/>
<path d="M322.39 158.764C325.113 158.764 327.319 156.395 327.319 153.472C327.319 150.549 325.113 148.18 322.39 148.18C319.668 148.18 317.462 150.549 317.462 153.472C317.462 156.395 319.668 158.764 322.39 158.764Z" fill="#23809B"/>
<path d="M320.748 108.692C324.377 108.692 327.319 105.533 327.319 101.636C327.319 97.7387 324.377 94.5795 320.748 94.5795C317.118 94.5795 314.176 97.7387 314.176 101.636C314.176 105.533 317.118 108.692 320.748 108.692Z" fill="#FFCE68"/>
<path d="M223.18 183.732C226.67 183.732 229.499 180.695 229.499 176.947C229.499 173.2 226.67 170.163 223.18 170.163C219.69 170.163 216.861 173.2 216.861 176.947C216.861 180.695 219.69 183.732 223.18 183.732Z" fill="#FFCE68"/>
<path d="M289.657 160.392C291.751 160.392 293.449 158.57 293.449 156.322C293.449 154.073 291.751 152.251 289.657 152.251C287.563 152.251 285.866 154.073 285.866 156.322C285.866 158.57 287.563 160.392 289.657 160.392Z" fill="#215B74"/>
<path d="M208.14 444.406C210.234 444.406 211.932 442.583 211.932 440.335C211.932 438.087 210.234 436.264 208.14 436.264C206.046 436.264 204.349 438.087 204.349 440.335C204.349 442.583 206.046 444.406 208.14 444.406Z" fill="#215B74"/>
<path d="M228.362 116.02C231.223 116.02 233.543 113.529 233.543 110.456C233.543 107.383 231.223 104.892 228.362 104.892C225.5 104.892 223.18 107.383 223.18 110.456C223.18 113.529 225.5 116.02 228.362 116.02Z" fill="#DC894E"/>
<path d="M175.281 268.543C177.724 268.543 179.704 266.416 179.704 263.793C179.704 261.17 177.724 259.044 175.281 259.044C172.838 259.044 170.857 261.17 170.857 263.793C170.857 266.416 172.838 268.543 175.281 268.543Z" fill="#E15C56"/>
</g>
<defs>
<clipPath id="clip0_6:208">
<rect width="594" height="555" fill="white" transform="translate(140.273 46)"/>
</clipPath>
</defs>
</svg>
