<svg width="25" height="25" viewBox="0 0 25 25" fill="none" xmlns="http://www.w3.org/2000/svg">
<path d="M10.1355 8.21045e-09C12.0249 -7.60219e-05 13.8766 0.527887 15.4818 1.52431C17.087 2.52073 18.3818 3.94595 19.2199 5.63912C20.0581 7.3323 20.4064 9.22603 20.2254 11.1066C20.0444 12.9872 19.3414 14.7798 18.1957 16.282L24.6058 22.6946C24.8482 22.9378 24.9889 23.2641 24.9994 23.6073C25.0098 23.9505 24.8893 24.2848 24.6622 24.5424C24.4351 24.7999 24.1185 24.9613 23.7767 24.9939C23.4349 25.0265 23.0935 24.9277 22.8218 24.7177L22.6948 24.6055L16.282 18.1957C15.0022 19.1715 13.5084 19.8286 11.9241 20.1125C10.3399 20.3964 8.71085 20.299 7.17175 19.8283C5.63265 19.3577 4.22776 18.5272 3.07333 17.4058C1.91891 16.2844 1.04814 14.9042 0.533066 13.3794C0.0179973 11.8546 -0.126558 10.2291 0.111361 8.63742C0.349281 7.04569 0.962835 5.53349 1.90125 4.22596C2.83967 2.91843 4.07598 1.85316 5.50787 1.11829C6.93976 0.383422 8.52607 8.49442e-05 10.1355 8.21045e-09ZM10.1355 2.70286C8.16415 2.70286 6.27351 3.48597 4.87953 4.8799C3.48555 6.27383 2.70242 8.16441 2.70242 10.1357C2.70242 12.1071 3.48555 13.9976 4.87953 15.3916C6.27351 16.7855 8.16415 17.5686 10.1355 17.5686C12.1069 17.5686 13.9976 16.7855 15.3915 15.3916C16.7855 13.9976 17.5686 12.1071 17.5686 10.1357C17.5686 8.16441 16.7855 6.27383 15.3915 4.8799C13.9976 3.48597 12.1069 2.70286 10.1355 2.70286Z" fill="black"/>
</svg>
