<svg width="30" height="25" viewBox="0 0 30 25" fill="none" xmlns="http://www.w3.org/2000/svg">
<path d="M29.2108 4.04973L15.3648 0.0512573C15.1279 -0.0170858 14.8718 -0.0170858 14.635 0.0512573L0.811147 4.04349L0.809705 4.04386L0.788935 4.04986C0.784897 4.05111 0.781291 4.05298 0.777397 4.05423C0.727372 4.06911 0.678601 4.08698 0.631437 4.10771C0.6261 4.11021 0.620475 4.11209 0.615139 4.11458C0.5685 4.13616 0.523634 4.1605 0.480861 4.18743C0.471477 4.19331 0.462198 4.1993 0.453025 4.20542C0.41135 4.23271 0.371838 4.26239 0.334757 4.29427C0.331439 4.29739 0.328411 4.30064 0.325093 4.30364C0.290941 4.33446 0.259097 4.36714 0.229758 4.40148C0.2237 4.40847 0.217498 4.41522 0.211729 4.42234C0.181455 4.45942 0.154132 4.49825 0.129951 4.53855C0.126201 4.5448 0.123028 4.55104 0.119422 4.55729C0.0968525 4.59682 0.0773387 4.6376 0.0610091 4.67937C0.0595668 4.68324 0.0575476 4.68699 0.0561053 4.69099C0.0398096 4.73536 0.0271342 4.78066 0.0181728 4.82656C0.0162979 4.83618 0.0147114 4.84581 0.0131248 4.8553C0.00482665 4.90258 0.000440565 4.95031 0 4.99812V14.9943C0 15.2594 0.121564 15.5137 0.337951 15.7012C0.554337 15.8886 0.84782 15.9939 1.15384 15.9939C1.45985 15.9939 1.75334 15.8886 1.96972 15.7012C2.18611 15.5137 2.30767 15.2594 2.30767 14.9943V6.38509L7.15162 7.78394C5.86751 9.58032 5.45662 11.7441 6.00879 13.8022C6.56095 15.8603 8.03126 17.6453 10.0982 18.7669C7.34582 19.6685 4.99714 21.3073 3.39372 23.4448C3.30889 23.5548 3.25009 23.6782 3.22071 23.808C3.19133 23.9377 3.19196 24.0713 3.22256 24.2008C3.25317 24.3304 3.31314 24.4534 3.39901 24.5627C3.48487 24.672 3.59492 24.7655 3.72279 24.8377C3.85065 24.91 3.99378 24.9595 4.14389 24.9835C4.29401 25.0074 4.44811 25.0053 4.59729 24.9773C4.74647 24.9493 4.88775 24.896 5.01295 24.8203C5.13816 24.7447 5.24479 24.6483 5.32668 24.5367C6.37494 23.1415 7.80868 21.9951 9.49784 21.2016C11.187 20.408 13.0781 19.9924 14.9997 19.9924C16.9212 19.9924 18.8123 20.408 20.5015 21.2016C22.1906 21.9951 23.6244 23.1415 24.6726 24.5367C24.755 24.6474 24.8618 24.7429 24.9869 24.8177C25.112 24.8926 25.253 24.9452 25.4016 24.9727C25.5503 25.0002 25.7038 25.002 25.8533 24.9779C26.0027 24.9539 26.1453 24.9044 26.2726 24.8325C26.4 24.7606 26.5097 24.6675 26.5954 24.5588C26.6811 24.45 26.7412 24.3276 26.7721 24.1987C26.8031 24.0697 26.8043 23.9367 26.7758 23.8074C26.7472 23.678 26.6894 23.5548 26.6057 23.4448C25.0023 21.3073 22.6537 19.6686 19.9014 18.767C21.9684 17.6454 23.4387 15.8604 23.9909 13.8023C24.5431 11.7441 24.1321 9.58033 22.848 7.78394L29.2108 5.94651C29.4406 5.8802 29.6405 5.75291 29.7821 5.5827C29.9238 5.41248 30 5.20796 30 4.99812C30 4.78828 29.9238 4.58377 29.7821 4.41355C29.6405 4.24333 29.4406 4.11605 29.2108 4.04973ZM14.9999 17.9932C13.7195 17.9933 12.4641 17.6858 11.3734 17.1048C10.2826 16.5238 9.39932 15.6921 8.82162 14.7021C8.24391 13.7122 7.99448 12.6028 8.10104 11.4974C8.20761 10.3919 8.66601 9.33377 9.42526 8.44056L14.635 9.94499C14.8718 10.0133 15.1279 10.0133 15.3648 9.94499L20.5745 8.44056C21.3337 9.33377 21.7921 10.3919 21.8987 11.4974C22.0053 12.6028 21.7558 13.7122 21.1781 14.7021C20.6004 15.6921 19.7171 16.5238 18.6264 17.1048C17.5356 17.6858 16.2803 17.9933 14.9999 17.9932Z" fill="white" fill-opacity="0.8"/>
</svg>
