<svg width="30" height="25" viewBox="0 0 30 25" fill="none" xmlns="http://www.w3.org/2000/svg">
<path d="M9.75005 17.1875C9.63802 17.1875 9.52599 17.2046 9.41912 17.2407C8.81162 17.4463 8.17271 17.5781 7.50006 17.5781C6.8274 17.5781 6.1885 17.4463 5.58053 17.2407C5.47366 17.2046 5.36209 17.1875 5.25006 17.1875C2.34101 17.1875 -0.015393 19.6523 7.57254e-05 22.6865C0.00663821 23.9688 1.01867 25 2.25007 25H12.75C13.9814 25 14.9935 23.9688 15 22.6865C15.0155 19.6523 12.6591 17.1875 9.75005 17.1875ZM7.50006 15.625C9.98536 15.625 12 13.5264 12 10.9375C12 8.34863 9.98536 6.25 7.50006 6.25C5.01475 6.25 3.00007 8.34863 3.00007 10.9375C3.00007 13.5264 5.01475 15.625 7.50006 15.625ZM27.75 0H9.75005C8.50927 0 7.50006 1.08643 7.50006 2.42139V4.6875C8.59787 4.6875 9.61411 5.01855 10.5 5.55664V3.125H27V17.1875H24V14.0625H18V17.1875H14.4263C15.3216 18.0024 15.9788 19.0786 16.2868 20.3125H27.75C28.9908 20.3125 30 19.2261 30 17.8911V2.42139C30 1.08643 28.9908 0 27.75 0Z" fill="white" fill-opacity="0.8"/>
</svg>
