<svg width="30" height="20" viewBox="0 0 30 20" fill="none" xmlns="http://www.w3.org/2000/svg">
<path fill-rule="evenodd" clip-rule="evenodd" d="M9 10C7.80653 10 6.66193 9.47322 5.81802 8.53553C4.97411 7.59785 4.5 6.32608 4.5 5C4.5 3.67392 4.97411 2.40215 5.81802 1.46447C6.66193 0.526784 7.80653 0 9 0C10.1935 0 11.3381 0.526784 12.182 1.46447C13.0259 2.40215 13.5 3.67392 13.5 5C13.5 6.32608 13.0259 7.59785 12.182 8.53553C11.3381 9.47322 10.1935 10 9 10ZM21 10C19.8065 10 18.6619 9.47322 17.818 8.53553C16.9741 7.59785 16.5 6.32608 16.5 5C16.5 3.67392 16.9741 2.40215 17.818 1.46447C18.6619 0.526784 19.8065 0 21 0C22.1935 0 23.3381 0.526784 24.182 1.46447C25.0259 2.40215 25.5 3.67392 25.5 5C25.5 6.32608 25.0259 7.59785 24.182 8.53553C23.3381 9.47322 22.1935 10 21 10ZM9 13.3333C10.7028 13.3311 12.3864 13.7325 13.9384 14.5108C15.4904 15.2891 16.8751 16.4264 18 17.8467V20H0V17.8467C1.12493 16.4264 2.50963 15.2891 4.06164 14.5108C5.61365 13.7325 7.29724 13.3311 9 13.3333ZM21 20V16.5867L20.25 15.6417C19.6775 14.9203 19.0502 14.2551 18.375 13.6533C19.2368 13.4401 20.1171 13.3328 21 13.3333C22.7028 13.3311 24.3864 13.7325 25.9384 14.5108C27.4904 15.2891 28.8751 16.4264 30 17.8467V20H21Z" fill="white"/>
</svg>
