<svg width="30" height="32" viewBox="0 0 30 32" fill="none" xmlns="http://www.w3.org/2000/svg">
<path d="M26.6667 0H3.33333C2.44928 0 1.60143 0.337142 0.976311 0.937258C0.351189 1.53737 0 2.35131 0 3.2V24C0 24.8487 0.351189 25.6626 0.976311 26.2627C1.60143 26.8629 2.44928 27.2 3.33333 27.2H10L15 32L20 27.2H26.6667C27.5507 27.2 28.3986 26.8629 29.0237 26.2627C29.6488 25.6626 30 24.8487 30 24V3.2C30 2.35131 29.6488 1.53737 29.0237 0.937258C28.3986 0.337142 27.5507 0 26.6667 0ZM15 4.8C17.8783 4.8 20 6.8352 20 9.6C20 12.3648 17.8783 14.4 15 14.4C12.1233 14.4 10 12.3648 10 9.6C10 6.8352 12.1233 4.8 15 4.8ZM6.96167 22.4C7.89167 19.6432 11.1217 17.6 15 17.6C18.8783 17.6 22.11 19.6432 23.0383 22.4H6.96167Z" fill="#3E5196"/>
</svg>
