<svg width="50" height="50" viewBox="0 0 50 50" fill="none" xmlns="http://www.w3.org/2000/svg">
<path d="M48.8575 7.80625C50 13.375 50 25 50 25C50 25 50 36.625 48.8575 42.1938C48.2225 45.2719 46.365 47.6938 44.0125 48.5125C39.74 50 25 50 25 50C25 50 10.2675 50 5.9875 48.5125C3.625 47.6813 1.77 45.2625 1.1425 42.1938C7.45058e-08 36.625 0 25 0 25C0 25 7.45058e-08 13.375 1.1425 7.80625C1.7775 4.72813 3.635 2.30625 5.9875 1.4875C10.2675 -5.58794e-07 25 0 25 0C25 0 39.74 -5.58794e-07 44.0125 1.4875C46.375 2.31875 48.23 4.7375 48.8575 7.80625ZM20 35.9375L35 25L20 14.0625V35.9375Z" fill="white"/>
</svg>
